# Made using Asset Forge (www.assetforge.io) version 1.3 

mtllib wall.mtl 

v 0.4999999 0 -0.0625
v 0.4999999 1 -0.0625
v 0.4374999 -2.707168E-16 -5.960464E-08
v 0.4374999 1 -5.960464E-08
v 1.5625 -6.316725E-16 1.192093E-07
v 1.5625 1 1.192093E-07
v 1.5 0 -0.06249988
v 1.5 1 -0.06249988
v 0.4999999 1 0.06249994
v 0.4999999 0 0.06249994
v 1.5 1 0.06250012
v 1.5 0 0.06250012
vn -0.7071068 0 -0.7071069
vn 0.7071069 0 -0.7071068
vn -0.7071069 0 0.7071068
vn 0 1 0
vn 0 -1 0
vn 0.7071068 0 0.7071069
vn -1.192093E-07 0 1
vn 1.192093E-07 0 -1
vt -0.4999999 0
vt -0.4999999 1
vt -0.4374999 -2.707168E-16
vt -0.4374999 1
vt -1.266599E-07 -6.316725E-16
vt -1.266599E-07 1
vt 0.06249989 0
vt 0.06249989 1
vt 0.06250001 1
vt 0.06250001 0
vt -7.450581E-09 1
vt -7.450581E-09 -2.707168E-16
vt -1.5 0.06250013
vt -0.4999999 0.06250001
vt -1.5625 1.266599E-07
vt -0.4374999 -7.450581E-09
vt -1.5 -0.06249989
vt -0.4999999 -0.06250001
vt -1.5 -0.06250013
vt -0.4374999 7.450581E-09
vt -1.5625 -1.266599E-07
vt -1.5 0.06249989
vt 1.5625 1
vt 1.5625 -6.316725E-16
vt 1.5 1
vt 1.5 0
vt 0.4999999 1
vt 0.4999999 0
vt -1.5 0
vt -1.5 1

usemtl stone (Instance)
usemap stone (Instance)
f 3/3/1 2/2/1 1/1/1
f 2/2/1 3/3/1 4/4/1
f 7/7/2 6/6/2 5/5/2
f 6/6/2 7/7/2 8/8/2
f 4/11/3 10/10/3 9/9/3
f 10/10/3 4/11/3 3/12/3
f 6/15/4 9/14/4 11/13/4
f 9/14/4 6/15/4 4/16/4
f 4/16/4 6/15/4 8/17/4
f 4/16/4 8/17/4 2/18/4
f 3/20/5 12/19/5 10/18/5
f 12/19/5 3/20/5 5/21/5
f 5/21/5 3/20/5 1/14/5
f 5/21/5 1/14/5 7/22/5
f 11/25/6 5/24/6 6/23/6
f 5/24/6 11/25/6 12/26/6
f 9/27/7 12/26/7 11/25/7
f 12/26/7 9/27/7 10/28/7
f 1/1/8 8/30/8 7/29/8
f 8/30/8 1/1/8 2/2/8
v 1.5 0 -0.0625
v 1.5 1 -0.0625
v 1.4375 -2.707168E-16 -5.960464E-08
v 1.4375 1 -5.960464E-08
v 2.5625 -6.316725E-16 1.192093E-07
v 2.5625 1 1.192093E-07
v 2.5 0 -0.06249988
v 2.5 1 -0.06249988
v 1.5 1 0.06249994
v 1.5 0 0.06249994
v 2.5 1 0.06250012
v 2.5 0 0.06250012
vt -1.5 0
vt -1.5 1
vt -1.4375 -2.707168E-16
vt -1.4375 1
vt -2.5 0.06250013
vt -1.5 0.06250001
vt -2.5625 1.266599E-07
vt -1.4375 -7.450581E-09
vt -2.5 -0.06249989
vt -1.5 -0.06250001
vt -2.5 -0.06250013
vt -1.4375 7.450581E-09
vt -2.5625 -1.266599E-07
vt -2.5 0.06249989
vt 2.5625 1
vt 2.5625 -6.316725E-16
vt 2.5 1
vt 2.5 0
vt 1.5 1
vt 1.5 0
vt -2.5 0
vt -2.5 1

usemtl stone (Instance)
usemap stone (Instance)
f 15/33/1 14/32/1 13/31/1
f 14/32/1 15/33/1 16/34/1
f 19/7/2 18/6/2 17/5/2
f 18/6/2 19/7/2 20/8/2
f 16/11/3 22/10/3 21/9/3
f 22/10/3 16/11/3 15/12/3
f 18/37/4 21/36/4 23/35/4
f 21/36/4 18/37/4 16/38/4
f 16/38/4 18/37/4 20/39/4
f 16/38/4 20/39/4 14/40/4
f 15/42/5 24/41/5 22/40/5
f 24/41/5 15/42/5 17/43/5
f 17/43/5 15/42/5 13/36/5
f 17/43/5 13/36/5 19/44/5
f 23/47/6 17/46/6 18/45/6
f 17/46/6 23/47/6 24/48/6
f 21/49/7 24/48/7 23/47/7
f 24/48/7 21/49/7 22/50/7
f 13/31/8 20/52/8 19/51/8
f 20/52/8 13/31/8 14/32/8
v -1.5 0 -0.0625
v -1.5 1 -0.0625
v -1.5625 -2.707168E-16 -5.960464E-08
v -1.5625 1 -5.960464E-08
v -0.4375 -6.316725E-16 1.192093E-07
v -0.4375 1 1.192093E-07
v -0.5 0 -0.06249988
v -0.5 1 -0.06249988
v -1.5 1 0.06249994
v -1.5 0 0.06249994
v -0.5 1 0.06250012
v -0.5 0 0.06250012
vt 1.5 0
vt 1.5 1
vt 1.5625 -2.707168E-16
vt 1.5625 1
vt 0.5 0.06250013
vt 1.5 0.06250001
vt 0.4375 1.266599E-07
vt 1.5625 -7.450581E-09
vt 0.5 -0.06249989
vt 1.5 -0.06250001
vt 0.5 -0.06250013
vt 1.5625 7.450581E-09
vt 0.4375 -1.266599E-07
vt 0.5 0.06249989
vt -0.4375 1
vt -0.4375 -6.316725E-16
vt -0.5 1
vt -0.5 0
vt -1.5 1
vt -1.5 0
vt 0.5 0
vt 0.5 1

usemtl stone (Instance)
usemap stone (Instance)
f 27/55/1 26/54/1 25/53/1
f 26/54/1 27/55/1 28/56/1
f 31/7/2 30/6/2 29/5/2
f 30/6/2 31/7/2 32/8/2
f 28/11/3 34/10/3 33/9/3
f 34/10/3 28/11/3 27/12/3
f 30/59/4 33/58/4 35/57/4
f 33/58/4 30/59/4 28/60/4
f 28/60/4 30/59/4 32/61/4
f 28/60/4 32/61/4 26/62/4
f 27/64/5 36/63/5 34/62/5
f 36/63/5 27/64/5 29/65/5
f 29/65/5 27/64/5 25/58/5
f 29/65/5 25/58/5 31/66/5
f 35/69/6 29/68/6 30/67/6
f 29/68/6 35/69/6 36/70/6
f 33/71/7 36/70/7 35/69/7
f 36/70/7 33/71/7 34/72/7
f 25/53/8 32/74/8 31/73/8
f 32/74/8 25/53/8 26/54/8
v -2.5 0 -0.0625
v -2.5 1 -0.0625
v -2.5625 -2.707168E-16 -5.960464E-08
v -2.5625 1 -5.960464E-08
v -1.4375 -6.316725E-16 1.192093E-07
v -1.4375 1 1.192093E-07
v -1.5 0 -0.06249988
v -1.5 1 -0.06249988
v -2.5 1 0.06249994
v -2.5 0 0.06249994
v -1.5 1 0.06250012
v -1.5 0 0.06250012
vt 2.5625 -2.707168E-16
vt 2.5625 1
vt 1.5 0.06250013
vt 2.5 0.06250001
vt 1.4375 1.266599E-07
vt 2.5625 -7.450581E-09
vt 1.5 -0.06249989
vt 2.5 -0.06250001
vt 2.5 -0.06250001
vt 1.5 -0.06250013
vt 2.5625 7.450581E-09
vt 1.4375 -1.266599E-07
vt 2.5 0.06250001
vt 1.5 0.06249989
vt -1.4375 1
vt -1.4375 -6.316725E-16
vt -2.5 1
vt -2.5 0

usemtl stone (Instance)
usemap stone (Instance)
f 39/75/1 38/47/1 37/48/1
f 38/47/1 39/75/1 40/76/1
f 43/7/2 42/6/2 41/5/2
f 42/6/2 43/7/2 44/8/2
f 40/11/3 46/10/3 45/9/3
f 46/10/3 40/11/3 39/12/3
f 42/79/4 45/78/4 47/77/4
f 45/78/4 42/79/4 40/80/4
f 40/80/4 42/79/4 44/81/4
f 40/80/4 44/81/4 38/82/4
f 39/85/5 48/84/5 46/83/5
f 48/84/5 39/85/5 41/86/5
f 41/86/5 39/85/5 37/87/5
f 41/86/5 37/87/5 43/88/5
f 47/30/6 41/90/6 42/89/6
f 41/90/6 47/30/6 48/29/6
f 45/91/7 48/29/7 47/30/7
f 48/29/7 45/91/7 46/92/7
f 37/48/8 44/25/8 43/26/8
f 44/25/8 37/48/8 38/47/8
v 1.5 2 -0.0625
v 1.4375 2 -5.960464E-08
v 2.5625 2 1.192093E-07
v 2.5 2 -0.06249988
v 1.5 2 0.06249994
v 2.5 2 0.06250012
vt -1.5 2
vt -1.4375 2
vt -1.266599E-07 2
vt 0.06249989 2
vt 0.06250001 2
vt -7.450581E-09 2
vt 2.5625 2
vt 2.5 2
vt 1.5 2
vt -2.5 2

usemtl stone (Instance)
usemap stone (Instance)
f 16/34/1 49/93/1 14/32/1
f 49/93/1 16/34/1 50/94/1
f 20/8/2 51/95/2 18/6/2
f 51/95/2 20/8/2 52/96/2
f 50/98/3 21/9/3 53/97/3
f 21/9/3 50/98/3 16/11/3
f 51/37/4 53/36/4 54/35/4
f 53/36/4 51/37/4 50/38/4
f 50/38/4 51/37/4 52/39/4
f 50/38/4 52/39/4 49/40/4
f 16/42/5 23/41/5 21/40/5
f 23/41/5 16/42/5 18/43/5
f 18/43/5 16/42/5 14/36/5
f 18/43/5 14/36/5 20/44/5
f 54/100/6 18/45/6 51/99/6
f 18/45/6 54/100/6 23/47/6
f 53/101/7 23/47/7 54/100/7
f 23/47/7 53/101/7 21/49/7
f 14/32/8 52/102/8 20/52/8
f 52/102/8 14/32/8 49/93/8
v 0.4999999 2 -0.0625
v 0.4374999 2 -5.960464E-08
v 1.5625 2 1.192093E-07
v 1.5 2 -0.06249988
v 0.4999999 2 0.06249994
v 1.5 2 0.06250012
vt -0.4999999 2
vt -0.4374999 2
vt 1.5625 2
vt 1.5 2
vt 0.4999999 2
vt -1.5 2

usemtl stone (Instance)
usemap stone (Instance)
f 4/4/1 55/103/1 2/2/1
f 55/103/1 4/4/1 56/104/1
f 8/8/2 57/95/2 6/6/2
f 57/95/2 8/8/2 58/96/2
f 56/98/3 9/9/3 59/97/3
f 9/9/3 56/98/3 4/11/3
f 57/15/4 59/14/4 60/13/4
f 59/14/4 57/15/4 56/16/4
f 56/16/4 57/15/4 58/17/4
f 56/16/4 58/17/4 55/18/4
f 4/20/5 11/19/5 9/18/5
f 11/19/5 4/20/5 6/21/5
f 6/21/5 4/20/5 2/14/5
f 6/21/5 2/14/5 8/22/5
f 60/106/6 6/23/6 57/105/6
f 6/23/6 60/106/6 11/25/6
f 59/107/7 11/25/7 60/106/7
f 11/25/7 59/107/7 9/27/7
f 2/2/8 58/108/8 8/30/8
f 58/108/8 2/2/8 55/103/8
v -2.5 2 -0.0625
v -2.5625 2 -5.960464E-08
v -1.4375 2 1.192093E-07
v -1.5 2 -0.06249988
v -2.5 2 0.06249994
v -1.5 2 0.06250012
vt 2.5625 2
vt -1.4375 2
vt -2.5 2

usemtl stone (Instance)
usemap stone (Instance)
f 40/76/1 61/100/1 38/47/1
f 61/100/1 40/76/1 62/109/1
f 44/8/2 63/95/2 42/6/2
f 63/95/2 44/8/2 64/96/2
f 62/98/3 45/9/3 65/97/3
f 45/9/3 62/98/3 40/11/3
f 63/79/4 65/78/4 66/77/4
f 65/78/4 63/79/4 62/80/4
f 62/80/4 63/79/4 64/81/4
f 62/80/4 64/81/4 61/82/4
f 40/85/5 47/84/5 45/83/5
f 47/84/5 40/85/5 42/86/5
f 42/86/5 40/85/5 38/87/5
f 42/86/5 38/87/5 44/88/5
f 66/108/6 42/89/6 63/110/6
f 42/89/6 66/108/6 47/30/6
f 65/111/7 47/30/7 66/108/7
f 47/30/7 65/111/7 45/91/7
f 38/47/8 64/106/8 44/25/8
f 64/106/8 38/47/8 61/100/8
v -1.5 2 -0.0625
v -1.5625 2 -5.960464E-08
v -0.4375 2 1.192093E-07
v -0.5 2 -0.06249988
v -1.5 2 0.06249994
v -0.5 2 0.06250012
vt 1.5 2
vt 1.5625 2
vt -0.4375 2
vt -0.5 2
vt -1.5 2
vt 0.5 2

usemtl stone (Instance)
usemap stone (Instance)
f 28/56/1 67/112/1 26/54/1
f 67/112/1 28/56/1 68/113/1
f 32/8/2 69/95/2 30/6/2
f 69/95/2 32/8/2 70/96/2
f 68/98/3 33/9/3 71/97/3
f 33/9/3 68/98/3 28/11/3
f 69/59/4 71/58/4 72/57/4
f 71/58/4 69/59/4 68/60/4
f 68/60/4 69/59/4 70/61/4
f 68/60/4 70/61/4 67/62/4
f 28/64/5 35/63/5 33/62/5
f 35/63/5 28/64/5 30/65/5
f 30/65/5 28/64/5 26/58/5
f 30/65/5 26/58/5 32/66/5
f 72/115/6 30/67/6 69/114/6
f 30/67/6 72/115/6 35/69/6
f 71/116/7 35/69/7 72/115/7
f 35/69/7 71/116/7 33/71/7
f 26/54/8 70/117/8 32/74/8
f 70/117/8 26/54/8 67/112/8
v -0.5000001 1 -0.0625
v -0.5000001 2 -0.0625
v -0.5625001 1 -5.960464E-08
v -0.5625001 2 -5.960464E-08
v 0.5625 1 1.192093E-07
v 0.5625 2 1.192093E-07
v 0.5 1 -0.06249988
v 0.5 2 -0.06249988
v -0.5000001 2 0.06249994
v -0.5000001 1 0.06249994
v 0.5 2 0.06250012
v 0.5 1 0.06250012
vt 0.5000001 1
vt 0.5000001 2
vt 0.5625001 1
vt 0.5625001 2
vt -0.5 0.06250013
vt 0.5000001 0.06250001
vt -0.5625 1.266599E-07
vt 0.5625001 -7.450581E-09
vt -0.5 -0.06249989
vt 0.5000001 -0.06250001
vt -0.5 -0.06250013
vt 0.5625001 7.450581E-09
vt -0.5625 -1.266599E-07
vt -0.5 0.06249989
vt 0.5625 2
vt 0.5625 1
vt -0.5000001 2
vt -0.5000001 1

usemtl stone (Instance)
usemap stone (Instance)
f 75/120/1 74/119/1 73/118/1
f 74/119/1 75/120/1 76/121/1
f 79/8/2 78/95/2 77/6/2
f 78/95/2 79/8/2 80/96/2
f 76/98/3 82/9/3 81/97/3
f 82/9/3 76/98/3 75/11/3
f 78/124/4 81/123/4 83/122/4
f 81/123/4 78/124/4 76/125/4
f 76/125/4 78/124/4 80/126/4
f 76/125/4 80/126/4 74/127/4
f 75/129/5 84/128/5 82/127/5
f 84/128/5 75/129/5 77/130/5
f 77/130/5 75/129/5 73/123/5
f 77/130/5 73/123/5 79/131/5
f 83/117/6 77/133/6 78/132/6
f 77/133/6 83/117/6 84/74/6
f 81/134/7 84/74/7 83/117/7
f 84/74/7 81/134/7 82/135/7
f 73/118/8 80/115/8 79/69/8
f 80/115/8 73/118/8 74/119/8
v 1.5 3 -0.0625
v 1.4375 3 -5.960464E-08
v 2.5625 3 1.192093E-07
v 2.5 3 -0.06249988
v 1.5 3 0.06249994
v 2.5 3 0.06250012
vt -1.5 3
vt -1.4375 3
vt -1.266599E-07 3
vt 0.06249989 3
vt 0.06250001 3
vt -7.450581E-09 3
vt 2.5625 3
vt 2.5 3
vt 1.5 3
vt -2.5 3

usemtl stone (Instance)
usemap stone (Instance)
f 50/94/1 85/136/1 49/93/1
f 85/136/1 50/94/1 86/137/1
f 52/96/2 87/138/2 51/95/2
f 87/138/2 52/96/2 88/139/2
f 86/141/3 53/97/3 89/140/3
f 53/97/3 86/141/3 50/98/3
f 87/37/4 89/36/4 90/35/4
f 89/36/4 87/37/4 86/38/4
f 86/38/4 87/37/4 88/39/4
f 86/38/4 88/39/4 85/40/4
f 50/42/5 54/41/5 53/40/5
f 54/41/5 50/42/5 51/43/5
f 51/43/5 50/42/5 49/36/5
f 51/43/5 49/36/5 52/44/5
f 90/143/6 51/99/6 87/142/6
f 51/99/6 90/143/6 54/100/6
f 89/144/7 54/100/7 90/143/7
f 54/100/7 89/144/7 53/101/7
f 49/93/8 88/145/8 52/102/8
f 88/145/8 49/93/8 85/136/8
v 0.4999999 3 -0.0625
v 0.4374999 3 -5.960464E-08
v 1.5625 3 1.192093E-07
v 1.5 3 -0.06249988
v 0.4999999 3 0.06249994
v 1.5 3 0.06250012
vt -0.4999999 3
vt -0.4374999 3
vt 1.5625 3
vt 1.5 3
vt 0.4999999 3
vt -1.5 3

usemtl stone (Instance)
usemap stone (Instance)
f 56/104/1 91/146/1 55/103/1
f 91/146/1 56/104/1 92/147/1
f 58/96/2 93/138/2 57/95/2
f 93/138/2 58/96/2 94/139/2
f 92/141/3 59/97/3 95/140/3
f 59/97/3 92/141/3 56/98/3
f 93/15/4 95/14/4 96/13/4
f 95/14/4 93/15/4 92/16/4
f 92/16/4 93/15/4 94/17/4
f 92/16/4 94/17/4 91/18/4
f 56/20/5 60/19/5 59/18/5
f 60/19/5 56/20/5 57/21/5
f 57/21/5 56/20/5 55/14/5
f 57/21/5 55/14/5 58/22/5
f 96/149/6 57/105/6 93/148/6
f 57/105/6 96/149/6 60/106/6
f 95/150/7 60/106/7 96/149/7
f 60/106/7 95/150/7 59/107/7
f 55/103/8 94/151/8 58/108/8
f 94/151/8 55/103/8 91/146/8
v -0.5000001 3 -0.0625
v -0.5625001 3 -5.960464E-08
v 0.5625 3 1.192093E-07
v 0.5 3 -0.06249988
v -0.5000001 3 0.06249994
v 0.5 3 0.06250012
vt 0.5000001 3
vt 0.5625001 3
vt 0.5625 3
vt 0.5 3
vt -0.5000001 3
vt -0.5 3

usemtl stone (Instance)
usemap stone (Instance)
f 76/121/1 97/152/1 74/119/1
f 97/152/1 76/121/1 98/153/1
f 80/96/2 99/138/2 78/95/2
f 99/138/2 80/96/2 100/139/2
f 98/141/3 81/97/3 101/140/3
f 81/97/3 98/141/3 76/98/3
f 99/124/4 101/123/4 102/122/4
f 101/123/4 99/124/4 98/125/4
f 98/125/4 99/124/4 100/126/4
f 98/125/4 100/126/4 97/127/4
f 76/129/5 83/128/5 81/127/5
f 83/128/5 76/129/5 78/130/5
f 78/130/5 76/129/5 74/123/5
f 78/130/5 74/123/5 80/131/5
f 102/155/6 78/132/6 99/154/6
f 78/132/6 102/155/6 83/117/6
f 101/156/7 83/117/7 102/155/7
f 83/117/7 101/156/7 81/134/7
f 74/119/8 100/157/8 80/115/8
f 100/157/8 74/119/8 97/152/8
v -1.5 3 -0.0625
v -1.5625 3 -5.960464E-08
v -0.4375 3 1.192093E-07
v -0.5 3 -0.06249988
v -1.5 3 0.06249994
v -0.5 3 0.06250012
vt 1.5 3
vt 1.5625 3
vt -0.4375 3
vt -1.5 3

usemtl stone (Instance)
usemap stone (Instance)
f 68/113/1 103/158/1 67/112/1
f 103/158/1 68/113/1 104/159/1
f 70/96/2 105/138/2 69/95/2
f 105/138/2 70/96/2 106/139/2
f 104/141/3 71/97/3 107/140/3
f 71/97/3 104/141/3 68/98/3
f 105/59/4 107/58/4 108/57/4
f 107/58/4 105/59/4 104/60/4
f 104/60/4 105/59/4 106/61/4
f 104/60/4 106/61/4 103/62/4
f 68/64/5 72/63/5 71/62/5
f 72/63/5 68/64/5 69/65/5
f 69/65/5 68/64/5 67/58/5
f 69/65/5 67/58/5 70/66/5
f 108/157/6 69/114/6 105/160/6
f 69/114/6 108/157/6 72/115/6
f 107/161/7 72/115/7 108/157/7
f 72/115/7 107/161/7 71/116/7
f 67/112/8 106/155/8 70/117/8
f 106/155/8 67/112/8 103/158/8
v -2.5 3 -0.0625
v -2.5625 3 -5.960464E-08
v -1.4375 3 1.192093E-07
v -1.5 3 -0.06249988
v -2.5 3 0.06249994
v -1.5 3 0.06250012
vt 2.5625 3
vt -1.4375 3
vt -2.5 3

usemtl stone (Instance)
usemap stone (Instance)
f 62/109/1 109/143/1 61/100/1
f 109/143/1 62/109/1 110/162/1
f 64/96/2 111/138/2 63/95/2
f 111/138/2 64/96/2 112/139/2
f 110/141/3 65/97/3 113/140/3
f 65/97/3 110/141/3 62/98/3
f 111/79/4 113/78/4 114/77/4
f 113/78/4 111/79/4 110/80/4
f 110/80/4 111/79/4 112/81/4
f 110/80/4 112/81/4 109/82/4
f 62/85/5 66/84/5 65/83/5
f 66/84/5 62/85/5 63/86/5
f 63/86/5 62/85/5 61/87/5
f 63/86/5 61/87/5 64/88/5
f 114/151/6 63/110/6 111/163/6
f 63/110/6 114/151/6 66/108/6
f 113/164/7 66/108/7 114/151/7
f 66/108/7 113/164/7 65/111/7
f 61/100/8 112/149/8 64/106/8
f 112/149/8 61/100/8 109/143/8
v 1.5 4 -0.0625
v 1.5 5 -0.0625
v 1.4375 4 -5.960464E-08
v 1.4375 5 -5.960464E-08
v 2.5625 4 1.192093E-07
v 2.5625 5 1.192093E-07
v 2.5 4 -0.06249988
v 2.5 5 -0.06249988
v 1.5 5 0.06249994
v 1.5 4 0.06249994
v 2.5 5 0.06250012
v 2.5 4 0.06250012
vt -1.5 4
vt -1.5 5
vt -1.4375 4
vt -1.4375 5
vt -1.266599E-07 4
vt -1.266599E-07 5
vt 0.06249989 4
vt 0.06249989 5
vt 0.06250001 5
vt 0.06250001 4
vt -7.450581E-09 5
vt -7.450581E-09 4
vt 2.5625 5
vt 2.5625 4
vt 2.5 5
vt 2.5 4
vt 1.5 5
vt 1.5 4
vt -2.5 4
vt -2.5 5

usemtl stone (Instance)
usemap stone (Instance)
f 117/167/1 116/166/1 115/165/1
f 116/166/1 117/167/1 118/168/1
f 121/171/2 120/170/2 119/169/2
f 120/170/2 121/171/2 122/172/2
f 118/175/3 124/174/3 123/173/3
f 124/174/3 118/175/3 117/176/3
f 120/37/4 123/36/4 125/35/4
f 123/36/4 120/37/4 118/38/4
f 118/38/4 120/37/4 122/39/4
f 118/38/4 122/39/4 116/40/4
f 117/42/5 126/41/5 124/40/5
f 126/41/5 117/42/5 119/43/5
f 119/43/5 117/42/5 115/36/5
f 119/43/5 115/36/5 121/44/5
f 125/179/6 119/178/6 120/177/6
f 119/178/6 125/179/6 126/180/6
f 123/181/7 126/180/7 125/179/7
f 126/180/7 123/181/7 124/182/7
f 115/165/8 122/184/8 121/183/8
f 122/184/8 115/165/8 116/166/8
v 0.4999999 4 -0.0625
v 0.4999999 5 -0.0625
v 0.4374999 4 -5.960464E-08
v 0.4374999 5 -5.960464E-08
v 1.5625 4 1.192093E-07
v 1.5625 5 1.192093E-07
v 1.5 4 -0.06249988
v 1.5 5 -0.06249988
v 0.4999999 5 0.06249994
v 0.4999999 4 0.06249994
v 1.5 5 0.06250012
v 1.5 4 0.06250012
vt -0.4999999 4
vt -0.4999999 5
vt -0.4374999 4
vt -0.4374999 5
vt 1.5625 5
vt 1.5625 4
vt 1.5 5
vt 1.5 4
vt 0.4999999 5
vt 0.4999999 4
vt -1.5 4
vt -1.5 5

usemtl stone (Instance)
usemap stone (Instance)
f 129/187/1 128/186/1 127/185/1
f 128/186/1 129/187/1 130/188/1
f 133/171/2 132/170/2 131/169/2
f 132/170/2 133/171/2 134/172/2
f 130/175/3 136/174/3 135/173/3
f 136/174/3 130/175/3 129/176/3
f 132/15/4 135/14/4 137/13/4
f 135/14/4 132/15/4 130/16/4
f 130/16/4 132/15/4 134/17/4
f 130/16/4 134/17/4 128/18/4
f 129/20/5 138/19/5 136/18/5
f 138/19/5 129/20/5 131/21/5
f 131/21/5 129/20/5 127/14/5
f 131/21/5 127/14/5 133/22/5
f 137/191/6 131/190/6 132/189/6
f 131/190/6 137/191/6 138/192/6
f 135/193/7 138/192/7 137/191/7
f 138/192/7 135/193/7 136/194/7
f 127/185/8 134/196/8 133/195/8
f 134/196/8 127/185/8 128/186/8
v -0.5000001 4 -0.0625
v -0.5000001 5 -0.0625
v -0.5625001 4 -5.960464E-08
v -0.5625001 5 -5.960464E-08
v 0.5625 4 1.192093E-07
v 0.5625 5 1.192093E-07
v 0.5 4 -0.06249988
v 0.5 5 -0.06249988
v -0.5000001 5 0.06249994
v -0.5000001 4 0.06249994
v 0.5 5 0.06250012
v 0.5 4 0.06250012
vt 0.5000001 4
vt 0.5000001 5
vt 0.5625001 4
vt 0.5625001 5
vt 0.5625 5
vt 0.5625 4
vt 0.5 5
vt 0.5 4
vt -0.5000001 5
vt -0.5000001 4
vt -0.5 4
vt -0.5 5

usemtl stone (Instance)
usemap stone (Instance)
f 141/199/1 140/198/1 139/197/1
f 140/198/1 141/199/1 142/200/1
f 145/171/2 144/170/2 143/169/2
f 144/170/2 145/171/2 146/172/2
f 142/175/3 148/174/3 147/173/3
f 148/174/3 142/175/3 141/176/3
f 144/124/4 147/123/4 149/122/4
f 147/123/4 144/124/4 142/125/4
f 142/125/4 144/124/4 146/126/4
f 142/125/4 146/126/4 140/127/4
f 141/129/5 150/128/5 148/127/5
f 150/128/5 141/129/5 143/130/5
f 143/130/5 141/129/5 139/123/5
f 143/130/5 139/123/5 145/131/5
f 149/203/6 143/202/6 144/201/6
f 143/202/6 149/203/6 150/204/6
f 147/205/7 150/204/7 149/203/7
f 150/204/7 147/205/7 148/206/7
f 139/197/8 146/208/8 145/207/8
f 146/208/8 139/197/8 140/198/8
v -1.5 4 -0.0625
v -1.5 5 -0.0625
v -1.5625 4 -5.960464E-08
v -1.5625 5 -5.960464E-08
v -0.4375 4 1.192093E-07
v -0.4375 5 1.192093E-07
v -0.5 4 -0.06249988
v -0.5 5 -0.06249988
v -1.5 5 0.06249994
v -1.5 4 0.06249994
v -0.5 5 0.06250012
v -0.5 4 0.06250012
vt 1.5 4
vt 1.5 5
vt 1.5625 4
vt 1.5625 5
vt -0.4375 5
vt -0.4375 4
vt -1.5 5
vt -1.5 4

usemtl stone (Instance)
usemap stone (Instance)
f 153/211/1 152/210/1 151/209/1
f 152/210/1 153/211/1 154/212/1
f 157/171/2 156/170/2 155/169/2
f 156/170/2 157/171/2 158/172/2
f 154/175/3 160/174/3 159/173/3
f 160/174/3 154/175/3 153/176/3
f 156/59/4 159/58/4 161/57/4
f 159/58/4 156/59/4 154/60/4
f 154/60/4 156/59/4 158/61/4
f 154/60/4 158/61/4 152/62/4
f 153/64/5 162/63/5 160/62/5
f 162/63/5 153/64/5 155/65/5
f 155/65/5 153/64/5 151/58/5
f 155/65/5 151/58/5 157/66/5
f 161/208/6 155/214/6 156/213/6
f 155/214/6 161/208/6 162/207/6
f 159/215/7 162/207/7 161/208/7
f 162/207/7 159/215/7 160/216/7
f 151/209/8 158/203/8 157/204/8
f 158/203/8 151/209/8 152/210/8
v -2.5 4 -0.0625
v -2.5 5 -0.0625
v -2.5625 4 -5.960464E-08
v -2.5625 5 -5.960464E-08
v -1.4375 4 1.192093E-07
v -1.4375 5 1.192093E-07
v -1.5 4 -0.06249988
v -1.5 5 -0.06249988
v -2.5 5 0.06249994
v -2.5 4 0.06249994
v -1.5 5 0.06250012
v -1.5 4 0.06250012
vt 2.5625 4
vt 2.5625 5
vt -1.4375 5
vt -1.4375 4
vt -2.5 5
vt -2.5 4

usemtl stone (Instance)
usemap stone (Instance)
f 165/217/1 164/179/1 163/180/1
f 164/179/1 165/217/1 166/218/1
f 169/171/2 168/170/2 167/169/2
f 168/170/2 169/171/2 170/172/2
f 166/175/3 172/174/3 171/173/3
f 172/174/3 166/175/3 165/176/3
f 168/79/4 171/78/4 173/77/4
f 171/78/4 168/79/4 166/80/4
f 166/80/4 168/79/4 170/81/4
f 166/80/4 170/81/4 164/82/4
f 165/85/5 174/84/5 172/83/5
f 174/84/5 165/85/5 167/86/5
f 167/86/5 165/85/5 163/87/5
f 167/86/5 163/87/5 169/88/5
f 173/196/6 167/220/6 168/219/6
f 167/220/6 173/196/6 174/195/6
f 171/221/7 174/195/7 173/196/7
f 174/195/7 171/221/7 172/222/7
f 163/180/8 170/191/8 169/192/8
f 170/191/8 163/180/8 164/179/8

usemtl stone (Instance)
usemap stone (Instance)
f 110/162/1 163/180/1 109/143/1
f 163/180/1 110/162/1 165/217/1
f 112/139/2 167/169/2 111/138/2
f 167/169/2 112/139/2 169/171/2
f 165/176/3 113/140/3 172/174/3
f 113/140/3 165/176/3 110/141/3
f 167/79/4 172/78/4 174/77/4
f 172/78/4 167/79/4 165/80/4
f 165/80/4 167/79/4 169/81/4
f 165/80/4 169/81/4 163/82/4
f 110/85/5 114/84/5 113/83/5
f 114/84/5 110/85/5 111/86/5
f 111/86/5 110/85/5 109/87/5
f 111/86/5 109/87/5 112/88/5
f 174/195/6 111/163/6 167/220/6
f 111/163/6 174/195/6 114/151/6
f 172/222/7 114/151/7 174/195/7
f 114/151/7 172/222/7 113/164/7
f 109/143/8 169/192/8 112/149/8
f 169/192/8 109/143/8 163/180/8

usemtl stone (Instance)
usemap stone (Instance)
f 104/159/1 151/209/1 103/158/1
f 151/209/1 104/159/1 153/211/1
f 106/139/2 155/169/2 105/138/2
f 155/169/2 106/139/2 157/171/2
f 153/176/3 107/140/3 160/174/3
f 107/140/3 153/176/3 104/141/3
f 155/59/4 160/58/4 162/57/4
f 160/58/4 155/59/4 153/60/4
f 153/60/4 155/59/4 157/61/4
f 153/60/4 157/61/4 151/62/4
f 104/64/5 108/63/5 107/62/5
f 108/63/5 104/64/5 105/65/5
f 105/65/5 104/64/5 103/58/5
f 105/65/5 103/58/5 106/66/5
f 162/207/6 105/160/6 155/214/6
f 105/160/6 162/207/6 108/157/6
f 160/216/7 108/157/7 162/207/7
f 108/157/7 160/216/7 107/161/7
f 103/158/8 157/204/8 106/155/8
f 157/204/8 103/158/8 151/209/8

usemtl stone (Instance)
usemap stone (Instance)
f 98/153/1 139/197/1 97/152/1
f 139/197/1 98/153/1 141/199/1
f 100/139/2 143/169/2 99/138/2
f 143/169/2 100/139/2 145/171/2
f 141/176/3 101/140/3 148/174/3
f 101/140/3 141/176/3 98/141/3
f 143/124/4 148/123/4 150/122/4
f 148/123/4 143/124/4 141/125/4
f 141/125/4 143/124/4 145/126/4
f 141/125/4 145/126/4 139/127/4
f 98/129/5 102/128/5 101/127/5
f 102/128/5 98/129/5 99/130/5
f 99/130/5 98/129/5 97/123/5
f 99/130/5 97/123/5 100/131/5
f 150/204/6 99/154/6 143/202/6
f 99/154/6 150/204/6 102/155/6
f 148/206/7 102/155/7 150/204/7
f 102/155/7 148/206/7 101/156/7
f 97/152/8 145/207/8 100/157/8
f 145/207/8 97/152/8 139/197/8

usemtl stone (Instance)
usemap stone (Instance)
f 92/147/1 127/185/1 91/146/1
f 127/185/1 92/147/1 129/187/1
f 94/139/2 131/169/2 93/138/2
f 131/169/2 94/139/2 133/171/2
f 129/176/3 95/140/3 136/174/3
f 95/140/3 129/176/3 92/141/3
f 131/15/4 136/14/4 138/13/4
f 136/14/4 131/15/4 129/16/4
f 129/16/4 131/15/4 133/17/4
f 129/16/4 133/17/4 127/18/4
f 92/20/5 96/19/5 95/18/5
f 96/19/5 92/20/5 93/21/5
f 93/21/5 92/20/5 91/14/5
f 93/21/5 91/14/5 94/22/5
f 138/192/6 93/148/6 131/190/6
f 93/148/6 138/192/6 96/149/6
f 136/194/7 96/149/7 138/192/7
f 96/149/7 136/194/7 95/150/7
f 91/146/8 133/195/8 94/151/8
f 133/195/8 91/146/8 127/185/8

usemtl stone (Instance)
usemap stone (Instance)
f 86/137/1 115/165/1 85/136/1
f 115/165/1 86/137/1 117/167/1
f 88/139/2 119/169/2 87/138/2
f 119/169/2 88/139/2 121/171/2
f 117/176/3 89/140/3 124/174/3
f 89/140/3 117/176/3 86/141/3
f 119/37/4 124/36/4 126/35/4
f 124/36/4 119/37/4 117/38/4
f 117/38/4 119/37/4 121/39/4
f 117/38/4 121/39/4 115/40/4
f 86/42/5 90/41/5 89/40/5
f 90/41/5 86/42/5 87/43/5
f 87/43/5 86/42/5 85/36/5
f 87/43/5 85/36/5 88/44/5
f 126/180/6 87/142/6 119/178/6
f 87/142/6 126/180/6 90/143/6
f 124/182/7 90/143/7 126/180/7
f 90/143/7 124/182/7 89/144/7
f 85/136/8 121/183/8 88/145/8
f 121/183/8 85/136/8 115/165/8
v -0.5000001 0 -0.0625
v -0.5625001 -2.707168E-16 -5.960464E-08
v 0.5625 -6.316725E-16 1.192093E-07
v 0.5 0 -0.06249988
v -0.5000001 0 0.06249994
v 0.5 0 0.06250012
vt 0.5000001 0
vt 0.5625001 -2.707168E-16
vt 0.5625 -6.316725E-16
vt -0.5000001 0

usemtl stone (Instance)
usemap stone (Instance)
f 176/224/1 73/118/1 175/223/1
f 73/118/1 176/224/1 75/120/1
f 178/7/2 77/6/2 177/5/2
f 77/6/2 178/7/2 79/8/2
f 75/11/3 179/10/3 82/9/3
f 179/10/3 75/11/3 176/12/3
f 77/124/4 82/123/4 84/122/4
f 82/123/4 77/124/4 75/125/4
f 75/125/4 77/124/4 79/126/4
f 75/125/4 79/126/4 73/127/4
f 176/129/5 180/128/5 179/127/5
f 180/128/5 176/129/5 177/130/5
f 177/130/5 176/129/5 175/123/5
f 177/130/5 175/123/5 178/131/5
f 84/74/6 177/225/6 77/133/6
f 177/225/6 84/74/6 180/73/6
f 82/135/7 180/73/7 84/74/7
f 180/73/7 82/135/7 179/226/7
f 175/223/8 79/69/8 178/70/8
f 79/69/8 175/223/8 73/118/8
